<?xml version="1.0" encoding="UTF-8"?>
<svg version="1.1" xmlns="http://www.w3.org/2000/svg" width="1402" height="1122">
<path d="M0 0 C462.66 0 925.32 0 1402 0 C1402 370.26 1402 740.52 1402 1122 C939.34 1122 476.68 1122 0 1122 C0 751.74 0 381.48 0 0 Z " fill="#FDFDFD" transform="translate(0,0)"/>
<path d="M0 0 C1.18195859 -0.00235223 2.36391718 -0.00470446 3.5816927 -0.00712797 C6.86411292 -0.01263989 10.14649962 -0.01369107 13.42892325 -0.01285056 C16.99959542 -0.01302043 20.57025891 -0.01893068 24.14092672 -0.02409142 C31.22390586 -0.03340945 38.30687875 -0.03733813 45.38986325 -0.03961039 C53.87399428 -0.0425746 62.35811703 -0.05127339 70.8422437 -0.06002467 C91.35058879 -0.08086275 111.85893532 -0.09133847 132.36728853 -0.10015428 C142.07266804 -0.10436231 151.77804695 -0.10958414 161.48342595 -0.11483881 C194.71644758 -0.13272981 227.94946939 -0.14772447 261.18249512 -0.155159 C263.26868867 -0.15563375 265.35488222 -0.15610964 267.44107576 -0.15658666 C268.47562599 -0.15682303 269.51017621 -0.15705941 270.57607644 -0.15730295 C275.81748895 -0.15850413 281.05890145 -0.15971958 286.30031395 -0.16094494 C287.34048285 -0.16118509 288.38065175 -0.16142524 289.45234091 -0.16167267 C323.16155586 -0.16956199 356.87073557 -0.19298584 390.57993514 -0.22550088 C426.23181836 -0.25982688 461.88368098 -0.27951277 497.53558099 -0.28280324 C501.45228983 -0.28322076 505.36899865 -0.28370032 509.28570747 -0.28422642 C510.73227867 -0.28441121 510.73227867 -0.28441121 512.20807354 -0.28459973 C527.70480812 -0.28692846 543.20150168 -0.30257032 558.69822167 -0.32306826 C574.28767062 -0.34336101 589.8770705 -0.3487873 605.46653022 -0.33929763 C614.71816907 -0.33409585 623.96964412 -0.33989729 633.22125927 -0.3618323 C639.41469292 -0.37540156 645.60801459 -0.3742097 651.80144952 -0.36143034 C655.32160137 -0.3545741 658.84144149 -0.35372311 662.36156471 -0.37099043 C683.88231428 -0.45702582 703.56336025 0.94039968 723.2807827 10.13422108 C724.34812645 10.62019764 725.4154702 11.1061742 726.5151577 11.60687733 C733.27288272 14.82279977 739.33238535 18.60299677 745.2807827 23.13422108 C746.16507957 23.80195545 747.04937645 24.46968983 747.9604702 25.15765858 C771.20235885 43.39562786 787.1423407 70.31544108 791.5307827 99.57172108 C794.26492038 123.06794555 792.41010393 146.57568993 782.2807827 168.13422108 C781.77933739 169.27761951 781.27789207 170.42101795 780.76125145 171.59906483 C770.13547925 194.58279106 751.92068869 212.20148779 729.7182827 223.94672108 C728.85606102 224.4030492 727.99383934 224.85937733 727.10548973 225.32953358 C711.52897725 233.32868182 695.51242879 237.45914723 678.01972866 237.38869667 C676.82778998 237.39190315 675.63585129 237.39510963 674.40779325 237.39841327 C671.11599834 237.4052569 667.82435062 237.40322801 664.53255839 237.39735755 C660.94482446 237.39317015 657.35711086 237.40059887 653.76938194 237.40651006 C647.48662805 237.41525899 641.20390676 237.41658882 634.9211483 237.41300678 C625.57791047 237.40769397 616.23470414 237.41380101 606.89146974 237.42208972 C589.23084675 237.4373264 571.57023811 237.43903502 553.90960992 237.43656669 C540.26778308 237.43473331 526.62596093 237.43649458 512.98413467 237.44079113 C511.02348948 237.44139354 509.06284428 237.44199473 507.10219909 237.44259473 C504.14756621 237.443502 501.19293334 237.44441067 498.23830046 237.44532708 C470.76729285 237.45375654 443.29628701 237.45809248 415.82527828 237.45392036 C414.78974093 237.45376399 413.75420357 237.45360761 412.68728629 237.4534465 C407.43892703 237.45264073 402.19056778 237.45179496 396.94220854 237.4509332 C395.37873759 237.45067656 395.37873759 237.45067656 393.78368138 237.45041475 C391.67586757 237.45006809 389.56805377 237.44971956 387.46023996 237.44936916 C354.67750984 237.44401438 321.89480663 237.4519355 289.11208153 237.47040272 C252.26682199 237.49113421 215.42157913 237.50184304 178.57631344 237.49782723 C174.64479983 237.4974319 170.71328622 237.49707035 166.78177261 237.49672985 C165.3297551 237.49659375 165.3297551 237.49659375 163.84840391 237.49645491 C149.25449684 237.49529041 134.66060665 237.50192616 120.0667038 237.51254177 C103.45944758 237.5246097 86.85222843 237.52613459 70.24497164 237.5137516 C60.9598058 237.5071375 51.67472868 237.50872046 42.38957 237.52234012 C36.17519912 237.5306169 29.96089432 237.52784537 23.74652875 237.51636485 C20.21371388 237.51014011 16.68107142 237.50842446 13.14826686 237.52022818 C-20.25082533 237.60921974 -49.86320668 232.96125931 -75.7192173 210.13422108 C-76.57128761 209.40203358 -77.42335793 208.66984608 -78.30124855 207.91547108 C-97.07783803 191.47539873 -109.00503823 170.25706714 -115.18421364 146.1954546 C-115.68767173 144.25575816 -116.22019818 142.32367309 -116.75461769 140.39227772 C-117.76902243 136.30737367 -118.08803372 132.30263681 -118.16062355 128.10297108 C-118.17729576 127.35770664 -118.19396797 126.61244221 -118.2111454 125.844594 C-118.25332353 123.44090851 -118.27238858 121.03825148 -118.2817173 118.63422108 C-118.28534279 117.81152729 -118.28896828 116.9888335 -118.29270363 116.1412096 C-118.28562296 101.57255001 -116.36817291 88.68307782 -110.7192173 75.13422108 C-110.40388039 74.37431873 -110.08854347 73.61441639 -109.76365089 72.8314867 C-107.71801569 68.07854957 -105.36449841 63.57886043 -102.7192173 59.13422108 C-102.34426125 58.50225819 -101.96930519 57.8702953 -101.58298683 57.21918201 C-95.70383351 47.50792751 -88.75791215 39.12745141 -80.7192173 31.13422108 C-79.59579933 30.01080311 -79.59579933 30.01080311 -78.44968605 28.86468983 C-61.78903956 13.19317263 -40.9234541 5.02241261 -18.7192173 1.13422108 C-17.75344721 0.96279978 -16.78767713 0.79137848 -15.79264128 0.6147626 C-10.54790875 -0.12103701 -5.28591842 -0.00714858 0 0 Z " fill="#F4565B" transform="translate(362.71921730041504,727.8657789230347)"/>
<path d="M0 0 C3.65069787 0.00934407 7.30132434 -0.00472496 10.95200762 -0.01563917 C17.3344516 -0.03154439 23.71676358 -0.03275591 30.09921953 -0.02404158 C39.59056723 -0.0111176 49.08179653 -0.02116983 58.57313719 -0.03554113 C75.52957126 -0.06042558 92.48594938 -0.06237621 109.44239639 -0.05426702 C124.28280967 -0.04718477 139.12320127 -0.04714596 153.96361467 -0.05413001 C155.95694259 -0.05504135 157.95027052 -0.05595211 159.94359845 -0.05686229 C162.94763091 -0.05824548 165.95166337 -0.05963657 168.95569582 -0.06104843 C196.87076029 -0.07402225 224.78581752 -0.07915214 252.70088311 -0.06751482 C253.75235268 -0.06707685 254.80382225 -0.06663888 255.88715454 -0.06618764 C264.42496016 -0.06258109 272.96276568 -0.05874618 281.5005712 -0.05489671 C314.80138167 -0.04004999 348.10211011 -0.04882997 381.40291139 -0.07685225 C418.84775529 -0.10830171 456.29255065 -0.12324342 493.73740801 -0.11305224 C497.7322845 -0.11201551 501.727161 -0.11102828 505.72203752 -0.11006873 C506.70562149 -0.10981984 507.68920547 -0.10957095 508.70259502 -0.10931453 C523.52918949 -0.10587913 538.355741 -0.11516275 553.18232652 -0.13083975 C570.04928153 -0.14863353 586.9161322 -0.14870376 603.78308279 -0.1254881 C613.21275329 -0.11301742 622.6421838 -0.11417815 632.07184005 -0.13536896 C638.38229439 -0.1481512 644.69256505 -0.14253027 651.00299958 -0.12238416 C654.59064773 -0.11143172 658.17782632 -0.10799584 661.76545126 -0.12705946 C681.53689225 -0.22481546 700.26851564 0.90423435 717.97664186 10.52007158 C718.58459596 10.83992021 719.19255006 11.15976884 719.81892701 11.48930986 C728.55716911 16.09805171 736.52571665 20.9734467 743.97664186 27.52007158 C744.78230592 28.1826497 745.58796998 28.84522783 746.41804811 29.52788408 C758.16976925 39.49569763 766.59013827 52.12547886 773.97664186 65.52007158 C774.69787233 66.81557939 774.69787233 66.81557939 775.43367311 68.13725908 C788.57702035 94.25705391 789.54265588 126.44469552 780.7190735 153.95537431 C776.02072645 167.84677194 769.78029697 181.469831 759.97664186 192.52007158 C759.25476686 193.34893877 758.53289186 194.17780595 757.78914186 195.03179033 C755.55152476 197.56044884 753.27110756 200.04304441 750.97664186 202.52007158 C750.4597278 203.11432939 749.94281373 203.7085872 749.41023561 204.32085283 C743.83037021 210.42519643 736.69843669 214.77938511 729.83308717 219.2954622 C728.31531945 220.29666195 726.81178797 221.31941413 725.31257936 222.34819658 C708.35757026 233.41847743 686.82689244 236.68360675 667.00574228 236.65149934 C665.22844407 236.65457829 665.22844407 236.65457829 663.41524085 236.65771945 C660.13400493 236.66239098 656.85280389 236.66261915 653.5715662 236.66094186 C649.9987327 236.66020817 646.42590644 236.66523975 642.85307606 236.66951687 C635.77012976 236.67708316 628.68719099 236.67928924 621.60424106 236.67984593 C613.11863632 236.68076093 604.63303853 236.68743253 596.14743679 236.69419275 C575.63909863 236.7102414 555.13076122 236.71615482 534.62241791 236.7209415 C524.91722703 236.72327866 515.21203675 236.72688145 505.50684634 236.73063688 C472.27357903 236.74347159 439.04031205 236.75419068 405.80704232 236.75763948 C403.72142162 236.75786111 401.63580092 236.7580829 399.55018021 236.75830483 C397.45957212 236.75852547 395.36896402 236.75874595 393.27835592 236.75896628 C389.08436009 236.75940883 384.89036425 236.75985594 380.69636842 236.76030595 C379.65650378 236.76041534 378.61663913 236.76052473 377.54526344 236.76063744 C343.83544198 236.76426724 310.12564204 236.78018479 276.41582883 236.80349632 C240.76132667 236.82810751 205.1068368 236.84181292 169.4523259 236.8430074 C165.53624578 236.84317885 161.62016567 236.84339427 157.70408555 236.84364183 C156.25775158 236.84372548 156.25775158 236.84372548 154.78219875 236.84381083 C139.28332811 236.84496017 123.78447959 236.85597223 108.28561641 236.87052889 C92.69869152 236.88491478 77.1117949 236.88811906 61.52486519 236.88008891 C52.27282354 236.87564248 43.02087337 236.87945365 33.76884379 236.89532741 C27.57776214 236.90511447 21.38674422 236.9038638 15.19566308 236.89389119 C11.67529074 236.88852588 8.1550934 236.88770163 4.63473592 236.90039991 C-33.48765581 237.01206831 -64.78268344 228.81402983 -93.02335814 201.89507158 C-105.44051508 189.18551691 -114.74766591 173.45355606 -120.31046752 156.63872392 C-120.7738606 155.26155777 -121.25851105 153.89129986 -121.76749877 152.53032548 C-130.18379807 129.89625408 -128.84507911 100.72779524 -120.02335814 78.52007158 C-119.62890502 77.41018877 -119.23445189 76.30030595 -118.82804564 75.15679033 C-114.05169325 62.54788802 -106.9047289 50.62824647 -98.02335814 40.52007158 C-97.36078002 39.71440752 -96.69820189 38.90874345 -96.01554564 38.07866533 C-71.13701588 8.74770496 -37.00517031 -0.14020102 0 0 Z " fill="#4EEF90" transform="translate(371.0233581420034,110.47992842178792)"/>
<path d="M0 0 C3.63282826 0.01025682 7.26559034 -0.00293582 10.8984089 -0.01297333 C17.24939779 -0.02734614 23.6002504 -0.02702774 29.95124538 -0.01678469 C39.39565079 -0.00159422 48.83994218 -0.00942094 58.28434693 -0.02161792 C75.15611365 -0.04263738 92.02781962 -0.04087276 108.89959205 -0.02930227 C123.66401951 -0.01922707 138.42842476 -0.01661929 153.19285495 -0.02139284 C154.17345673 -0.02169838 155.15405851 -0.02200393 156.1643755 -0.02231872 C160.14527334 -0.02356414 164.12617117 -0.02483775 168.10706899 -0.02615778 C205.42492882 -0.03838447 242.74275004 -0.02731454 280.0606039 -0.00577019 C313.19354557 0.01321268 346.32642574 0.0115114 379.45936687 -0.00761416 C416.71190686 -0.02904598 453.96441276 -0.03751873 491.21695806 -0.0251651 C495.19015537 -0.02388229 499.16335269 -0.02263093 503.13655002 -0.02139284 C504.11480366 -0.02107654 505.09305731 -0.02076023 506.100955 -0.02043433 C520.85446375 -0.01589008 535.6079478 -0.02119499 550.36145313 -0.03131106 C567.14101517 -0.0427592 583.92050716 -0.03986503 600.7000605 -0.01818808 C610.08367153 -0.00646463 619.46713074 -0.00564475 628.85073774 -0.02077278 C635.12666137 -0.02977239 641.40246382 -0.02410608 647.67836956 -0.0067537 C651.2487075 0.00271793 654.81874487 0.00610695 658.38907285 -0.00837763 C672.87523677 -0.06289682 686.17768517 0.23503402 700.0977946 4.51387022 C701.6515531 4.91809682 701.6515531 4.91809682 703.23670066 5.33048961 C719.22050031 9.51380087 734.24612941 20.2808359 746.0977946 31.51387022 C747.0362321 32.36207334 747.9746696 33.21027647 748.9415446 34.08418272 C772.36040308 56.12159167 782.50763089 86.06084651 783.7059489 117.53706358 C784.34228872 149.43041519 772.40979455 178.75044213 750.60609538 201.98237608 C738.62729312 214.38371439 724.16605208 223.4324811 708.0977946 229.51387022 C707.0665446 229.90445615 706.0352946 230.29504209 704.9727946 230.69746397 C698.84032364 232.87736575 692.84415295 234.22481659 686.39857585 235.11933897 C684.14059037 235.27859903 684.14059037 235.27859903 683.0977946 236.51387022 C681.54409029 236.61198816 679.98590927 236.63985684 678.42911 236.64037005 C677.41093007 236.64312979 676.39275014 236.64588954 675.34371627 236.64873291 C674.20925896 236.64667759 673.07480164 236.64462227 671.90596683 236.64250467 C670.70816484 236.64425771 669.51036286 236.64601074 668.27626384 236.6478169 C664.92152408 236.65169426 661.56683848 236.6510351 658.21210087 236.64853913 C654.57368159 236.64691486 650.93526829 236.65103951 647.29685087 236.65444831 C640.90998347 236.6596181 634.52312366 236.66101679 628.13625438 236.6599922 C618.63873404 236.65847228 609.14122215 236.66261789 599.64370345 236.66786682 C581.69602661 236.67755812 563.74835262 236.68035174 545.80067348 236.68092388 C531.94253588 236.68138277 518.0843994 236.68343769 504.22626216 236.6866245 C500.2425082 236.687522 496.25875424 236.68841182 492.27500028 236.68929938 C491.28472133 236.68952043 490.29444237 236.68974148 489.27415495 236.68996923 C461.4030482 236.6961271 433.53194184 236.70006942 405.66083438 236.69962595 C404.60914614 236.69961037 403.5574579 236.69959479 402.47390033 236.69957874 C397.1430769 236.69949563 391.81225347 236.69939658 386.48143005 236.69929403 C385.42264361 236.69927409 384.36385717 236.69925414 383.27298629 236.69923359 C381.13185895 236.69919315 378.99073161 236.69915136 376.84960428 236.6991082 C343.53828705 236.69849546 310.22698001 236.70600016 276.9156657 236.71968076 C239.52015665 236.73503225 202.1246543 236.74364752 164.7291419 236.74271754 C160.74350181 236.74264291 156.75786172 236.7425942 152.77222164 236.74256323 C151.30009407 236.74254574 151.30009407 236.74254574 149.79822654 236.74252791 C133.98412842 236.7424971 118.17003911 236.7488912 102.35594361 236.75749549 C86.46803819 236.76596126 70.5801457 236.76697041 54.69223928 236.76038617 C45.24666192 236.75668308 35.80112377 236.75854542 26.35555054 236.76832851 C20.05049451 236.77430845 13.74546703 236.77305526 7.44041234 236.76585801 C3.84498904 236.76195959 0.24964186 236.76124923 -3.3457762 236.76931536 C-7.21566535 236.77792144 -11.08543906 236.77112199 -14.95533078 236.76275919 C-16.0757411 236.76772737 -17.19615142 236.77269555 -18.35051357 236.77781428 C-23.95500179 236.75204401 -28.60303557 236.35115727 -33.9022054 234.51387022 C-35.52387746 234.26223145 -37.14904596 234.03189198 -38.7772054 233.82637022 C-66.41288984 228.8738741 -91.6673875 207.89000175 -107.29673665 185.49433897 C-114.67340427 174.4900675 -119.4782249 162.44223055 -123.22325032 149.78169248 C-123.6884489 148.22785227 -124.18792176 146.6839812 -124.7159261 145.15034483 C-127.50208299 136.42149384 -127.49758303 127.77605475 -127.4647054 118.70137022 C-127.4639803 117.47323606 -127.4639803 117.47323606 -127.46324055 116.22029112 C-127.40730811 102.58143205 -126.02393178 90.27758053 -120.9022054 77.51387022 C-120.60249837 76.75283994 -120.30279133 75.99180967 -119.99400227 75.20771787 C-113.33704023 58.79498503 -103.40935268 44.9524147 -90.9022054 32.51387022 C-89.68597493 31.29763975 -89.68597493 31.29763975 -88.44517415 30.05683897 C-78.73227822 20.85938694 -67.79474744 14.02281869 -55.5897054 8.63887022 C-54.40187459 8.10326475 -54.40187459 8.10326475 -53.19004719 7.55683897 C-35.86296159 0.27640661 -18.52289339 -0.07522245 0 0 Z " fill="#F7872A" transform="translate(371.9022053973749,415.48612978309393)"/>
<path d="M0 0 C1.18195859 -0.00235223 2.36391718 -0.00470446 3.5816927 -0.00712797 C6.86411292 -0.01263989 10.14649962 -0.01369107 13.42892325 -0.01285056 C16.99959542 -0.01302043 20.57025891 -0.01893068 24.14092672 -0.02409142 C31.22390586 -0.03340945 38.30687875 -0.03733813 45.38986325 -0.03961039 C53.87399428 -0.0425746 62.35811703 -0.05127339 70.8422437 -0.06002467 C91.35058879 -0.08086275 111.85893532 -0.09133847 132.36728853 -0.10015428 C142.07266804 -0.10436231 151.77804695 -0.10958414 161.48342595 -0.11483881 C194.71644758 -0.13272981 227.94946939 -0.14772447 261.18249512 -0.155159 C263.26868867 -0.15563375 265.35488222 -0.15610964 267.44107576 -0.15658666 C268.47562599 -0.15682303 269.51017621 -0.15705941 270.57607644 -0.15730295 C275.81748895 -0.15850413 281.05890145 -0.15971958 286.30031395 -0.16094494 C287.34048285 -0.16118509 288.38065175 -0.16142524 289.45234091 -0.16167267 C323.16155586 -0.16956199 356.87073557 -0.19298584 390.57993514 -0.22550088 C426.23181836 -0.25982688 461.88368098 -0.27951277 497.53558099 -0.28280324 C501.45228983 -0.28322076 505.36899865 -0.28370032 509.28570747 -0.28422642 C510.73227867 -0.28441121 510.73227867 -0.28441121 512.20807354 -0.28459973 C527.70480812 -0.28692846 543.20150168 -0.30257032 558.69822167 -0.32306826 C574.28767062 -0.34336101 589.8770705 -0.3487873 605.46653022 -0.33929763 C614.71816907 -0.33409585 623.96964412 -0.33989729 633.22125927 -0.3618323 C639.41469292 -0.37540156 645.60801459 -0.3742097 651.80144952 -0.36143034 C655.32160137 -0.3545741 658.84144149 -0.35372311 662.36156471 -0.37099043 C683.88231428 -0.45702582 703.56336025 0.94039968 723.2807827 10.13422108 C724.34812645 10.62019764 725.4154702 11.1061742 726.5151577 11.60687733 C733.27288272 14.82279977 739.33238535 18.60299677 745.2807827 23.13422108 C746.16507957 23.80195545 747.04937645 24.46968983 747.9604702 25.15765858 C771.20235885 43.39562786 787.1423407 70.31544108 791.5307827 99.57172108 C794.26492038 123.06794555 792.41010393 146.57568993 782.2807827 168.13422108 C781.77933739 169.27761951 781.27789207 170.42101795 780.76125145 171.59906483 C770.13547925 194.58279106 751.92068869 212.20148779 729.7182827 223.94672108 C728.85606102 224.4030492 727.99383934 224.85937733 727.10548973 225.32953358 C711.52897725 233.32868182 695.51242879 237.45914723 678.01972866 237.38869667 C676.82778998 237.39190315 675.63585129 237.39510963 674.40779325 237.39841327 C671.11599834 237.4052569 667.82435062 237.40322801 664.53255839 237.39735755 C660.94482446 237.39317015 657.35711086 237.40059887 653.76938194 237.40651006 C647.48662805 237.41525899 641.20390676 237.41658882 634.9211483 237.41300678 C625.57791047 237.40769397 616.23470414 237.41380101 606.89146974 237.42208972 C589.23084675 237.4373264 571.57023811 237.43903502 553.90960992 237.43656669 C540.26778308 237.43473331 526.62596093 237.43649458 512.98413467 237.44079113 C511.02348948 237.44139354 509.06284428 237.44199473 507.10219909 237.44259473 C504.14756621 237.443502 501.19293334 237.44441067 498.23830046 237.44532708 C470.76729285 237.45375654 443.29628701 237.45809248 415.82527828 237.45392036 C414.78974093 237.45376399 413.75420357 237.45360761 412.68728629 237.4534465 C407.43892703 237.45264073 402.19056778 237.45179496 396.94220854 237.4509332 C395.37873759 237.45067656 395.37873759 237.45067656 393.78368138 237.45041475 C391.67586757 237.45006809 389.56805377 237.44971956 387.46023996 237.44936916 C354.67750984 237.44401438 321.89480663 237.4519355 289.11208153 237.47040272 C252.26682199 237.49113421 215.42157913 237.50184304 178.57631344 237.49782723 C174.64479983 237.4974319 170.71328622 237.49707035 166.78177261 237.49672985 C165.3297551 237.49659375 165.3297551 237.49659375 163.84840391 237.49645491 C149.25449684 237.49529041 134.66060665 237.50192616 120.0667038 237.51254177 C103.45944758 237.5246097 86.85222843 237.52613459 70.24497164 237.5137516 C60.9598058 237.5071375 51.67472868 237.50872046 42.38957 237.52234012 C36.17519912 237.5306169 29.96089432 237.52784537 23.74652875 237.51636485 C20.21371388 237.51014011 16.68107142 237.50842446 13.14826686 237.52022818 C-20.25082533 237.60921974 -49.86320668 232.96125931 -75.7192173 210.13422108 C-76.57128761 209.40203358 -77.42335793 208.66984608 -78.30124855 207.91547108 C-97.07783803 191.47539873 -109.00503823 170.25706714 -115.18421364 146.1954546 C-115.68767173 144.25575816 -116.22019818 142.32367309 -116.75461769 140.39227772 C-117.76902243 136.30737367 -118.08803372 132.30263681 -118.16062355 128.10297108 C-118.17729576 127.35770664 -118.19396797 126.61244221 -118.2111454 125.844594 C-118.25332353 123.44090851 -118.27238858 121.03825148 -118.2817173 118.63422108 C-118.28534279 117.81152729 -118.28896828 116.9888335 -118.29270363 116.1412096 C-118.28562296 101.57255001 -116.36817291 88.68307782 -110.7192173 75.13422108 C-110.40388039 74.37431873 -110.08854347 73.61441639 -109.76365089 72.8314867 C-107.71801569 68.07854957 -105.36449841 63.57886043 -102.7192173 59.13422108 C-102.34426125 58.50225819 -101.96930519 57.8702953 -101.58298683 57.21918201 C-95.70383351 47.50792751 -88.75791215 39.12745141 -80.7192173 31.13422108 C-79.59579933 30.01080311 -79.59579933 30.01080311 -78.44968605 28.86468983 C-61.78903956 13.19317263 -40.9234541 5.02241261 -18.7192173 1.13422108 C-17.75344721 0.96279978 -16.78767713 0.79137848 -15.79264128 0.6147626 C-10.54790875 -0.12103701 -5.28591842 -0.00714858 0 0 Z M-37.9692173 30.38422108 C-38.63340675 30.68940662 -39.29759621 30.99459217 -39.98191261 31.30902576 C-51.09609518 36.54081079 -60.0428352 43.53699193 -68.7192173 52.13422108 C-69.53648293 52.93859608 -70.35374855 53.74297108 -71.1957798 54.57172108 C-77.39089683 61.04359591 -81.60967941 68.25835945 -85.7192173 76.13422108 C-86.42884621 77.38718983 -86.42884621 77.38718983 -87.15281105 78.66547108 C-97.77698494 99.05329386 -98.1055158 124.5012976 -91.73874855 146.14203358 C-82.68425898 172.71574627 -65.96554449 192.88052816 -40.69748878 205.35028553 C-32.00097646 209.52457015 -23.34547598 213.25615226 -13.56820542 213.26187158 C-12.54426331 213.26488755 -11.5203212 213.26790351 -10.46535054 213.27101088 C-9.34500655 213.2692414 -8.22466257 213.26747193 -7.07036877 213.26564884 C-5.27242105 213.26872779 -5.27242105 213.26872779 -3.43815115 213.27186894 C-0.09968516 213.2765615 3.23872714 213.27676295 6.57719247 213.27509135 C10.20502925 213.27436071 13.83285877 213.27938214 17.46069247 213.28366637 C24.66130101 213.29125039 31.86190213 213.29343964 39.06251425 213.29399543 C47.68548362 213.29490868 56.30844612 213.30157513 64.93141254 213.30834225 C85.77509323 213.3244093 106.61877319 213.33030649 127.46245896 213.335091 C137.32251676 213.33742641 147.18257398 213.34102902 157.04263133 213.34478638 C190.79256414 213.35762298 224.54249663 213.3683417 258.29243183 213.37178898 C260.41146103 213.37201061 262.53049022 213.3722324 264.64951942 213.37245433 C266.77368224 213.37267497 268.89784506 213.37289545 271.02200788 213.37311578 C275.28347774 213.37355833 279.5449476 213.37400545 283.80641747 213.37445545 C285.39131508 213.37461954 285.39131508 213.37461954 287.00823083 213.37478694 C321.26475132 213.37841718 355.52125063 213.39433542 389.77776301 213.41764582 C425.99268659 213.44224379 462.20759806 213.45596182 498.42253023 213.4571569 C502.39840385 213.45732835 506.37427745 213.45754378 510.35015106 213.45779133 C511.32912833 213.4578471 512.3081056 213.45790287 513.31674884 213.45796032 C529.06974122 213.45911086 544.82271188 213.47013313 560.57569693 213.48467838 C576.41170945 213.49904738 592.24769413 213.50227811 608.08371138 213.49423841 C617.49008644 213.48978392 626.89637162 213.49363552 636.30273487 213.50947691 C642.59045085 213.51923596 648.87810396 213.51803982 655.16581938 213.50804068 C658.74555558 213.5026553 662.32511935 213.50191692 665.90484118 213.5145494 C690.2575127 213.62491406 690.2575127 213.62491406 713.3432827 206.50922108 C714.48168602 205.98545887 714.48168602 205.98545887 715.64308739 205.45111561 C734.09533909 196.69233256 748.29368385 182.83862358 758.2807827 165.13422108 C759.12382957 163.69176014 759.12382957 163.69176014 759.9839077 162.22015858 C772.51130707 139.25325972 772.37400417 113.31906233 765.6557827 88.63422108 C761.6210797 76.36071615 755.03021863 64.63543669 746.2807827 55.13422108 C745.48285301 54.24476795 744.68492332 53.35531483 743.86281395 52.43890858 C728.63719373 36.29120501 707.62536185 24.7620272 685.19779003 23.76727116 C678.38237229 23.58820349 671.56772968 23.59705909 664.75046379 23.62655222 C661.13677845 23.63769939 657.52315495 23.62541287 653.90947443 23.61624473 C647.58904552 23.60339086 641.26875712 23.60526321 634.94832802 23.61702442 C625.54944833 23.63446586 616.15067836 23.62888592 606.75179286 23.61885751 C589.96229379 23.60169336 573.17286016 23.60718864 556.38336247 23.6222147 C541.69101191 23.63527879 526.99868403 23.64046006 512.30632782 23.63789654 C511.3308437 23.63773612 510.35535958 23.63757571 509.35031533 23.63741043 C505.39028017 23.63674682 501.43024502 23.6360444 497.47020987 23.63528509 C460.34131848 23.628265 423.212467 23.64373928 386.08358577 23.66990855 C353.11211479 23.69302448 320.14068768 23.69841068 287.16921043 23.68817616 C278.72502933 23.68557404 270.28084822 23.682989 261.83666706 23.68057823 C260.79701878 23.68028078 259.75737049 23.67998334 258.68621771 23.67967688 C231.11702712 23.67205867 203.5478401 23.6784771 175.97865111 23.68927425 C173.01150168 23.69042203 170.04435226 23.69156521 167.07720283 23.69270108 C165.10896381 23.69345632 163.1407248 23.69422197 161.17248579 23.69499808 C146.49032372 23.70065164 131.808173 23.6993297 117.12601089 23.69476986 C100.42906279 23.68965792 83.73215713 23.6955334 67.0352196 23.71566416 C57.69565894 23.7266354 48.35618175 23.72945768 39.01661857 23.72037562 C32.77254054 23.71514396 26.52853374 23.72088564 20.28447065 23.73542897 C16.73068275 23.74340838 13.17706316 23.74679742 9.62327635 23.73685641 C-14.7906202 23.46055985 -14.7906202 23.46055985 -37.9692173 30.38422108 Z " fill="#141315" transform="translate(362.71921730041504,727.8657789230347)"/>
<path d="M0 0 C3.65069787 0.00934407 7.30132434 -0.00472496 10.95200762 -0.01563917 C17.3344516 -0.03154439 23.71676358 -0.03275591 30.09921953 -0.02404158 C39.59056723 -0.0111176 49.08179653 -0.02116983 58.57313719 -0.03554113 C75.52957126 -0.06042558 92.48594938 -0.06237621 109.44239639 -0.05426702 C124.28280967 -0.04718477 139.12320127 -0.04714596 153.96361467 -0.05413001 C155.95694259 -0.05504135 157.95027052 -0.05595211 159.94359845 -0.05686229 C162.94763091 -0.05824548 165.95166337 -0.05963657 168.95569582 -0.06104843 C196.87076029 -0.07402225 224.78581752 -0.07915214 252.70088311 -0.06751482 C253.75235268 -0.06707685 254.80382225 -0.06663888 255.88715454 -0.06618764 C264.42496016 -0.06258109 272.96276568 -0.05874618 281.5005712 -0.05489671 C314.80138167 -0.04004999 348.10211011 -0.04882997 381.40291139 -0.07685225 C418.84775529 -0.10830171 456.29255065 -0.12324342 493.73740801 -0.11305224 C497.7322845 -0.11201551 501.727161 -0.11102828 505.72203752 -0.11006873 C506.70562149 -0.10981984 507.68920547 -0.10957095 508.70259502 -0.10931453 C523.52918949 -0.10587913 538.355741 -0.11516275 553.18232652 -0.13083975 C570.04928153 -0.14863353 586.9161322 -0.14870376 603.78308279 -0.1254881 C613.21275329 -0.11301742 622.6421838 -0.11417815 632.07184005 -0.13536896 C638.38229439 -0.1481512 644.69256505 -0.14253027 651.00299958 -0.12238416 C654.59064773 -0.11143172 658.17782632 -0.10799584 661.76545126 -0.12705946 C681.53689225 -0.22481546 700.26851564 0.90423435 717.97664186 10.52007158 C718.58459596 10.83992021 719.19255006 11.15976884 719.81892701 11.48930986 C728.55716911 16.09805171 736.52571665 20.9734467 743.97664186 27.52007158 C744.78230592 28.1826497 745.58796998 28.84522783 746.41804811 29.52788408 C758.16976925 39.49569763 766.59013827 52.12547886 773.97664186 65.52007158 C774.69787233 66.81557939 774.69787233 66.81557939 775.43367311 68.13725908 C788.57702035 94.25705391 789.54265588 126.44469552 780.7190735 153.95537431 C776.02072645 167.84677194 769.78029697 181.469831 759.97664186 192.52007158 C759.25476686 193.34893877 758.53289186 194.17780595 757.78914186 195.03179033 C755.55152476 197.56044884 753.27110756 200.04304441 750.97664186 202.52007158 C750.4597278 203.11432939 749.94281373 203.7085872 749.41023561 204.32085283 C743.83037021 210.42519643 736.69843669 214.77938511 729.83308717 219.2954622 C728.31531945 220.29666195 726.81178797 221.31941413 725.31257936 222.34819658 C708.35757026 233.41847743 686.82689244 236.68360675 667.00574228 236.65149934 C665.22844407 236.65457829 665.22844407 236.65457829 663.41524085 236.65771945 C660.13400493 236.66239098 656.85280389 236.66261915 653.5715662 236.66094186 C649.9987327 236.66020817 646.42590644 236.66523975 642.85307606 236.66951687 C635.77012976 236.67708316 628.68719099 236.67928924 621.60424106 236.67984593 C613.11863632 236.68076093 604.63303853 236.68743253 596.14743679 236.69419275 C575.63909863 236.7102414 555.13076122 236.71615482 534.62241791 236.7209415 C524.91722703 236.72327866 515.21203675 236.72688145 505.50684634 236.73063688 C472.27357903 236.74347159 439.04031205 236.75419068 405.80704232 236.75763948 C403.72142162 236.75786111 401.63580092 236.7580829 399.55018021 236.75830483 C397.45957212 236.75852547 395.36896402 236.75874595 393.27835592 236.75896628 C389.08436009 236.75940883 384.89036425 236.75985594 380.69636842 236.76030595 C379.65650378 236.76041534 378.61663913 236.76052473 377.54526344 236.76063744 C343.83544198 236.76426724 310.12564204 236.78018479 276.41582883 236.80349632 C240.76132667 236.82810751 205.1068368 236.84181292 169.4523259 236.8430074 C165.53624578 236.84317885 161.62016567 236.84339427 157.70408555 236.84364183 C156.25775158 236.84372548 156.25775158 236.84372548 154.78219875 236.84381083 C139.28332811 236.84496017 123.78447959 236.85597223 108.28561641 236.87052889 C92.69869152 236.88491478 77.1117949 236.88811906 61.52486519 236.88008891 C52.27282354 236.87564248 43.02087337 236.87945365 33.76884379 236.89532741 C27.57776214 236.90511447 21.38674422 236.9038638 15.19566308 236.89389119 C11.67529074 236.88852588 8.1550934 236.88770163 4.63473592 236.90039991 C-33.48765581 237.01206831 -64.78268344 228.81402983 -93.02335814 201.89507158 C-105.44051508 189.18551691 -114.74766591 173.45355606 -120.31046752 156.63872392 C-120.7738606 155.26155777 -121.25851105 153.89129986 -121.76749877 152.53032548 C-130.18379807 129.89625408 -128.84507911 100.72779524 -120.02335814 78.52007158 C-119.62890502 77.41018877 -119.23445189 76.30030595 -118.82804564 75.15679033 C-114.05169325 62.54788802 -106.9047289 50.62824647 -98.02335814 40.52007158 C-97.36078002 39.71440752 -96.69820189 38.90874345 -96.01554564 38.07866533 C-71.13701588 8.74770496 -37.00517031 -0.14020102 0 0 Z M-81.02335814 55.52007158 C-93.94688814 71.47729407 -103.1508497 90.71410114 -104.02335814 111.52007158 C-104.09812377 112.62866533 -104.17288939 113.73725908 -104.24992064 114.87944658 C-105.18644526 139.42624968 -95.62458301 164.24973124 -79.08585814 182.27007158 C-62.20597672 200.14989687 -40.39318449 212.75421317 -15.32914266 213.61231135 C-12.25452861 213.65035906 -9.18139552 213.65650563 -6.10654811 213.65149934 C-4.92753734 213.65355198 -3.74852657 213.65560461 -2.53378821 213.65771945 C0.73100721 213.66239074 3.99576757 213.66261922 7.26056477 213.66094186 C10.81553205 213.66020814 14.37049205 213.66523981 17.92545619 213.66951687 C24.97278248 213.6770829 32.02010119 213.67928922 39.06743112 213.67984593 C47.51025872 213.68076094 55.95307934 213.68743254 64.39590393 213.69419275 C84.79954989 213.71024043 105.20319509 213.71615449 125.60684622 213.7209415 C135.26121735 213.72327853 144.91558789 213.72688129 154.56995856 213.73063688 C187.6256624 213.74347086 220.68136591 213.75419052 253.73707219 213.75763948 C255.81146486 213.75786111 257.88585752 213.7580829 259.96025019 213.75830483 C262.03961241 213.75852547 264.11897464 213.75874595 266.19833686 213.75896628 C270.36979986 213.75940883 274.54126285 213.75985594 278.71272584 213.76030595 C279.74700339 213.76041534 280.78128094 213.76052473 281.84690024 213.76063744 C315.38368384 213.76426811 348.92044583 213.7801893 382.45722116 213.80349632 C417.92460033 213.82809993 453.39196716 213.84181255 488.85935512 213.8430074 C492.75375605 213.84317885 496.64815699 213.84339428 500.54255792 213.84364183 C501.50145023 213.8436976 502.46034254 213.84375337 503.4482922 213.84381083 C518.86964938 213.84496075 534.29098435 213.85597772 549.71233403 213.87052889 C565.21631172 213.88490493 580.72026097 213.88812459 596.22424349 213.88008891 C605.43025861 213.87563802 614.63618186 213.87947164 623.84218488 213.89532741 C629.99875744 213.90509877 636.15526585 213.90387864 642.31183787 213.89389119 C645.81496108 213.88851471 649.31790824 213.88773838 652.82101664 213.90039991 C666.53640654 213.94068247 679.62380901 213.90950827 692.97664186 210.52007158 C694.11061609 210.25113124 695.24459032 209.9821909 696.41292741 209.70510085 C715.62432447 204.92001073 733.77343623 190.56448146 744.97664186 174.52007158 C745.56703248 173.69378252 746.15742311 172.86749345 746.76570436 172.01616533 C760.65537615 151.48759755 766.81859532 125.56348589 762.25789186 100.98882158 C761.38786549 97.08504707 760.228791 93.31784406 758.97664186 89.52007158 C758.63761842 88.42823564 758.29859498 87.3363997 757.94929811 86.21147783 C753.26586836 72.59453085 745.01299989 60.72815437 734.97664186 50.52007158 C734.20707155 49.62481767 734.20707155 49.62481767 733.42195436 48.71147783 C721.22457689 35.02892746 698.46525544 24.5667239 680.25187975 23.33594415 C677.12096176 23.26311567 673.99579299 23.25315717 670.86404344 23.26559598 C669.06378838 23.26078627 669.06378838 23.26078627 667.22716453 23.25587938 C663.90297875 23.24902012 660.57901749 23.25107478 657.25484437 23.25693511 C653.63561003 23.26111362 650.01639606 23.25369881 646.39716669 23.2477826 C640.05621307 23.23902431 633.71529175 23.23770717 627.37433358 23.24128587 C617.94489615 23.24659359 608.51548998 23.24049684 599.08605595 23.23220294 C581.26486088 23.2169589 563.44368001 23.21525831 545.62247979 23.21772597 C531.86040766 23.2195584 518.09834018 23.21780006 504.33626863 23.21350153 C502.35929127 23.21289913 500.3823139 23.21229793 498.40533654 23.21169792 C495.42623304 23.21079067 492.44712954 23.209882 489.46802604 23.20896557 C461.76766977 23.20053531 434.06731525 23.19620083 406.36695787 23.20037229 C405.32259765 23.20052867 404.27823743 23.20068504 403.20222993 23.20084616 C397.90897054 23.20165194 392.61571115 23.20249771 387.32245176 23.20335946 C386.27119004 23.20353055 385.21992832 23.20370164 384.13681019 23.20387791 C382.01090306 23.20422456 379.88499593 23.20457309 377.7590888 23.20492349 C344.68136808 23.21028047 311.60367401 23.20235124 278.52595826 23.18388994 C241.36398823 23.16317344 204.20203471 23.15244659 167.04005858 23.15646542 C163.0774651 23.15686077 159.11487163 23.15722232 155.15227815 23.1575628 C154.17658576 23.15765354 153.20089337 23.15774427 152.19563455 23.15783775 C137.46693699 23.15900369 122.7382561 23.1523556 108.0095627 23.14175088 C91.2578626 23.12970191 74.50619924 23.12813642 57.7544986 23.14054105 C48.38122184 23.14717135 39.0080329 23.14553466 29.63476316 23.13195254 C23.37052366 23.12370795 17.10634995 23.12640573 10.8421158 23.1379278 C7.27504192 23.14418414 3.7081394 23.14578538 0.14107543 23.13406447 C-3.70850048 23.121532 -7.55781642 23.13237937 -11.40739516 23.14534147 C-12.50494358 23.13803212 -13.602492 23.13072278 -14.73329947 23.12319194 C-39.88248255 23.29855903 -64.69315018 36.71297141 -81.02335814 55.52007158 Z " fill="#101213" transform="translate(371.0233581420034,110.47992842178792)"/>
<path d="M0 0 C3.63282826 0.01025682 7.26559034 -0.00293582 10.8984089 -0.01297333 C17.24939779 -0.02734614 23.6002504 -0.02702774 29.95124538 -0.01678469 C39.39565079 -0.00159422 48.83994218 -0.00942094 58.28434693 -0.02161792 C75.15611365 -0.04263738 92.02781962 -0.04087276 108.89959205 -0.02930227 C123.66401951 -0.01922707 138.42842476 -0.01661929 153.19285495 -0.02139284 C154.17345673 -0.02169838 155.15405851 -0.02200393 156.1643755 -0.02231872 C160.14527334 -0.02356414 164.12617117 -0.02483775 168.10706899 -0.02615778 C205.42492882 -0.03838447 242.74275004 -0.02731454 280.0606039 -0.00577019 C313.19354557 0.01321268 346.32642574 0.0115114 379.45936687 -0.00761416 C416.71190686 -0.02904598 453.96441276 -0.03751873 491.21695806 -0.0251651 C495.19015537 -0.02388229 499.16335269 -0.02263093 503.13655002 -0.02139284 C504.11480366 -0.02107654 505.09305731 -0.02076023 506.100955 -0.02043433 C520.85446375 -0.01589008 535.6079478 -0.02119499 550.36145313 -0.03131106 C567.14101517 -0.0427592 583.92050716 -0.03986503 600.7000605 -0.01818808 C610.08367153 -0.00646463 619.46713074 -0.00564475 628.85073774 -0.02077278 C635.12666137 -0.02977239 641.40246382 -0.02410608 647.67836956 -0.0067537 C651.2487075 0.00271793 654.81874487 0.00610695 658.38907285 -0.00837763 C672.87523677 -0.06289682 686.17768517 0.23503402 700.0977946 4.51387022 C701.6515531 4.91809682 701.6515531 4.91809682 703.23670066 5.33048961 C719.22050031 9.51380087 734.24612941 20.2808359 746.0977946 31.51387022 C747.0362321 32.36207334 747.9746696 33.21027647 748.9415446 34.08418272 C772.36040308 56.12159167 782.50763089 86.06084651 783.7059489 117.53706358 C784.34228872 149.43041519 772.40979455 178.75044213 750.60609538 201.98237608 C738.62729312 214.38371439 724.16605208 223.4324811 708.0977946 229.51387022 C707.0665446 229.90445615 706.0352946 230.29504209 704.9727946 230.69746397 C698.84032364 232.87736575 692.84415295 234.22481659 686.39857585 235.11933897 C684.14059037 235.27859903 684.14059037 235.27859903 683.0977946 236.51387022 C681.54409029 236.61198816 679.98590927 236.63985684 678.42911 236.64037005 C677.41093007 236.64312979 676.39275014 236.64588954 675.34371627 236.64873291 C674.20925896 236.64667759 673.07480164 236.64462227 671.90596683 236.64250467 C670.70816484 236.64425771 669.51036286 236.64601074 668.27626384 236.6478169 C664.92152408 236.65169426 661.56683848 236.6510351 658.21210087 236.64853913 C654.57368159 236.64691486 650.93526829 236.65103951 647.29685087 236.65444831 C640.90998347 236.6596181 634.52312366 236.66101679 628.13625438 236.6599922 C618.63873404 236.65847228 609.14122215 236.66261789 599.64370345 236.66786682 C581.69602661 236.67755812 563.74835262 236.68035174 545.80067348 236.68092388 C531.94253588 236.68138277 518.0843994 236.68343769 504.22626216 236.6866245 C500.2425082 236.687522 496.25875424 236.68841182 492.27500028 236.68929938 C491.28472133 236.68952043 490.29444237 236.68974148 489.27415495 236.68996923 C461.4030482 236.6961271 433.53194184 236.70006942 405.66083438 236.69962595 C404.60914614 236.69961037 403.5574579 236.69959479 402.47390033 236.69957874 C397.1430769 236.69949563 391.81225347 236.69939658 386.48143005 236.69929403 C385.42264361 236.69927409 384.36385717 236.69925414 383.27298629 236.69923359 C381.13185895 236.69919315 378.99073161 236.69915136 376.84960428 236.6991082 C343.53828705 236.69849546 310.22698001 236.70600016 276.9156657 236.71968076 C239.52015665 236.73503225 202.1246543 236.74364752 164.7291419 236.74271754 C160.74350181 236.74264291 156.75786172 236.7425942 152.77222164 236.74256323 C151.30009407 236.74254574 151.30009407 236.74254574 149.79822654 236.74252791 C133.98412842 236.7424971 118.17003911 236.7488912 102.35594361 236.75749549 C86.46803819 236.76596126 70.5801457 236.76697041 54.69223928 236.76038617 C45.24666192 236.75668308 35.80112377 236.75854542 26.35555054 236.76832851 C20.05049451 236.77430845 13.74546703 236.77305526 7.44041234 236.76585801 C3.84498904 236.76195959 0.24964186 236.76124923 -3.3457762 236.76931536 C-7.21566535 236.77792144 -11.08543906 236.77112199 -14.95533078 236.76275919 C-16.0757411 236.76772737 -17.19615142 236.77269555 -18.35051357 236.77781428 C-23.95500179 236.75204401 -28.60303557 236.35115727 -33.9022054 234.51387022 C-35.52387746 234.26223145 -37.14904596 234.03189198 -38.7772054 233.82637022 C-66.41288984 228.8738741 -91.6673875 207.89000175 -107.29673665 185.49433897 C-114.67340427 174.4900675 -119.4782249 162.44223055 -123.22325032 149.78169248 C-123.6884489 148.22785227 -124.18792176 146.6839812 -124.7159261 145.15034483 C-127.50208299 136.42149384 -127.49758303 127.77605475 -127.4647054 118.70137022 C-127.4639803 117.47323606 -127.4639803 117.47323606 -127.46324055 116.22029112 C-127.40730811 102.58143205 -126.02393178 90.27758053 -120.9022054 77.51387022 C-120.60249837 76.75283994 -120.30279133 75.99180967 -119.99400227 75.20771787 C-113.33704023 58.79498503 -103.40935268 44.9524147 -90.9022054 32.51387022 C-89.68597493 31.29763975 -89.68597493 31.29763975 -88.44517415 30.05683897 C-78.73227822 20.85938694 -67.79474744 14.02281869 -55.5897054 8.63887022 C-54.40187459 8.10326475 -54.40187459 8.10326475 -53.19004719 7.55683897 C-35.86296159 0.27640661 -18.52289339 -0.07522245 0 0 Z M-81.27329915 55.04512022 C-89.37627319 64.77500718 -95.51221405 75.66759585 -99.9022054 87.51387022 C-100.34693196 88.64888975 -100.34693196 88.64888975 -100.8006429 89.80683897 C-107.41178181 107.77473632 -105.849203 126.46616288 -100.9022054 144.51387022 C-100.4690804 146.13422178 -100.4690804 146.13422178 -100.0272054 147.78730772 C-96.21849267 160.47168135 -89.52643983 171.54889345 -80.9022054 181.51387022 C-80.26927571 182.33887022 -79.63634602 183.16387022 -78.98423665 184.01387022 C-65.21834751 200.54326805 -42.45200079 211.11715757 -21.36241033 213.32515813 C-11.88902429 214.05182218 -2.32613025 213.79780906 7.16774452 213.78320805 C10.749346 213.77991626 14.33092469 213.78824467 17.91251869 213.7950264 C24.17972943 213.80529601 30.44690929 213.8081755 36.71412761 213.80611417 C46.03399524 213.80305634 55.35382887 213.81140535 64.67368988 213.82186343 C82.28896664 213.84117859 99.90423173 213.84683068 117.51951783 213.84797754 C131.12316871 213.84889743 144.72681504 213.85301829 158.33046443 213.85937879 C162.24943521 213.86117393 166.168406 213.86295356 170.08737678 213.86472855 C171.06169692 213.86517064 172.03601706 213.86561274 173.03986205 213.86606823 C200.43478727 213.87837166 227.8297109 213.88626985 255.22463901 213.88538168 C256.25691347 213.88535052 257.28918794 213.88531936 258.35274344 213.88528726 C263.58448896 213.88512105 268.81623449 213.88492297 274.04798001 213.88471784 C275.60648878 213.88465801 275.60648878 213.88465801 277.19648258 213.88459696 C279.29760295 213.88451609 281.39872332 213.88443249 283.49984369 213.88434618 C316.19576047 213.88312045 348.89163578 213.89813995 381.5875407 213.92549131 C418.33792991 213.95622189 455.08829188 213.97342329 491.83869476 213.97156487 C495.75829425 213.97141561 499.67789375 213.97131819 503.59749324 213.97125623 C504.5625688 213.97123293 505.52764437 213.97120962 506.52196465 213.9711856 C522.0406852 213.9711241 537.55936968 213.98388603 553.07807952 214.00112076 C568.67667292 214.01808587 584.27521365 214.02004412 599.87381118 214.00690212 C609.13542095 213.99951946 618.39687051 214.00315054 627.65846325 214.0227868 C633.8519189 214.03480651 640.04525881 214.03217367 646.2387092 214.0178458 C649.76284638 214.01009969 653.28667408 214.0084816 656.81078916 214.02476051 C687.47190774 214.13886924 711.6780334 207.60121321 734.0977946 185.51387022 C751.85882514 167.78249081 761.11324005 144.67404122 761.2227946 119.70137022 C761.20467958 116.97099902 761.15455927 114.24398031 761.0977946 111.51387022 C761.08103679 110.56254209 761.06427898 109.61121397 761.04701335 108.63105772 C759.93613667 87.87353335 749.29737731 69.00226945 736.0977946 53.51387022 C735.53834148 52.85258115 734.97888835 52.19129209 734.4024821 51.50996397 C721.12848349 37.13535743 701.2744622 27.3287939 682.0977946 24.51387022 C681.28595433 24.34255748 680.47411405 24.17124474 679.63767255 23.9947407 C674.58024976 23.30772115 669.57752758 23.37425594 664.47927863 23.38244245 C663.29607712 23.38038982 662.1128756 23.37833718 660.89381949 23.37622235 C657.60329769 23.37153532 654.31283045 23.37132685 651.02230935 23.37299994 C647.44472163 23.37373137 643.86714123 23.3687073 640.28955663 23.36442492 C633.19098984 23.3568456 626.09243056 23.35465189 618.99386014 23.35409587 C610.49226494 23.35318216 601.9906767 23.34651441 593.4890845 23.33974904 C572.94059079 23.32368738 552.39209783 23.31778559 531.84359897 23.31300029 C522.12315772 23.31066453 512.40271705 23.30706191 502.68227626 23.30330492 C469.4094236 23.29046932 436.13657127 23.27975009 402.8637162 23.27630232 C400.77494929 23.27608068 398.68618239 23.2758589 396.59741549 23.27563696 C394.50359825 23.27541632 392.409781 23.27519584 390.31596376 23.27497552 C386.1153924 23.27453296 381.91482104 23.27408585 377.71424968 23.27363584 C376.1520029 23.27347176 376.1520029 23.27347176 374.55819557 23.27330435 C340.78638631 23.26967359 307.01459852 23.25375287 273.24279748 23.23044548 C237.53885003 23.20584967 201.83491485 23.19212959 166.13095869 23.1909344 C162.21156926 23.19076294 158.29217983 23.19054751 154.37279041 23.19029997 C153.40772372 23.1902442 152.44265704 23.19018843 151.44834591 23.19013097 C135.91744097 23.18898031 120.38655807 23.17795706 104.85566057 23.16341291 C89.24494899 23.14904681 73.63426564 23.14581158 58.02354926 23.15385289 C48.75026543 23.15830858 39.47707275 23.15445091 30.20380089 23.13861438 C24.00611161 23.12885965 17.80848615 23.13004736 11.61079744 23.14005061 C8.08167711 23.14543907 4.55273171 23.14616443 1.02362591 23.13354189 C-2.78534083 23.12246378 -6.59384738 23.12992884 -10.40280144 23.14193342 C-12.03115825 23.13054063 -12.03115825 23.13054063 -13.69241114 23.11891768 C-39.85440304 23.29673232 -63.68756877 36.27155632 -81.27329915 55.04512022 Z " fill="#111213" transform="translate(371.9022053973749,415.48612978309393)"/>
<path d="M0 0 C0.79148437 0.30550781 1.58296875 0.61101563 2.3984375 0.92578125 C14.45138744 6.15379581 23.721612 16.10047618 29 28 C33.52394874 39.6353358 34.30863092 54.96926986 29.265625 66.546875 C23.06440261 78.56652827 16.92566124 86.35006175 5 93 C4.14019531 93.51175781 3.28039062 94.02351562 2.39453125 94.55078125 C-7.89701479 99.82278535 -21.86636457 100.00645951 -32.9921875 97.11328125 C-46.19031267 92.43959222 -57.72394326 81.82896602 -64.00390625 69.3125 C-69.40594088 56.77130587 -70.38656531 41.58065516 -65.32421875 28.73828125 C-58.58569886 14.80405575 -48.24140143 3.51522789 -33.4375 -1.9375 C-22.87870026 -4.65744681 -10.01702484 -4.33599132 0 0 Z " fill="#131214" transform="translate(397,799)"/>
<path d="M0 0 C9.28487784 7.64730521 16.45947603 18.32076436 18.59375 30.25390625 C20.15186831 47.31811767 17.05441156 61.54844076 5.90625 75.00390625 C-2.75849777 84.21225986 -15.23508332 90.58207804 -27.94921875 91.421875 C-42.99396229 91.53298832 -56.4263698 86.92708588 -67.40625 76.25390625 C-72.93941098 69.84293541 -76.75444044 63.27497379 -79.40625 55.25390625 C-79.94185547 53.87525391 -79.94185547 53.87525391 -80.48828125 52.46875 C-83.61055045 41.53416468 -82.10809057 27.35149205 -76.89453125 17.35546875 C-75.18236016 14.54673865 -73.36311665 11.89710609 -71.40625 9.25390625 C-70.88160156 8.53332031 -70.35695313 7.81273437 -69.81640625 7.0703125 C-62.86617063 -1.6472202 -53.27059961 -7.46713434 -42.40625 -9.74609375 C-41.436875 -9.97296875 -40.4675 -10.19984375 -39.46875 -10.43359375 C-24.63571413 -11.94716884 -12.12554881 -8.79889662 0 0 Z " fill="#121112" transform="translate(410.40625,493.74609375)"/>
<path d="M0 0 C11.47726921 7.85286841 20.92422143 18.88556913 24.02856445 32.76586914 C26.2715689 46.42148257 24.84822839 60.64297487 17 72.25 C15.80948712 73.80546926 14.60225286 75.34835139 13.375 76.875 C12.66537109 77.84566406 12.66537109 77.84566406 11.94140625 78.8359375 C5.25826046 87.50698785 -6.11437229 92.53930495 -16.625 94.875 C-32.25870111 95.83731662 -45.18120792 94.22647306 -57.625 83.875 C-58.57826172 83.08996094 -58.57826172 83.08996094 -59.55078125 82.2890625 C-64.94118534 77.38869514 -68.33142346 71.30725715 -71.625 64.875 C-72.06328125 64.03324219 -72.5015625 63.19148438 -72.953125 62.32421875 C-77.53553336 51.94925899 -77.18623259 38.5302079 -73.625 27.875 C-72.965 27.875 -72.305 27.875 -71.625 27.875 C-71.58375 27.070625 -71.5425 26.26625 -71.5 25.4375 C-68.99003122 15.21834141 -60.25032471 6.449905 -51.625 0.875 C-35.56533434 -8.26239598 -16.2263821 -9.6463044 0 0 Z " fill="#101313" transform="translate(564.625,184.125)"/>
<path d="M0 0 C10.02950228 7.71700046 16.11240936 20.54965399 18.2578125 32.78515625 C18.59744513 36.82890725 18.54106808 40.73941152 18.2578125 44.78515625 C18.19980469 45.66816406 18.14179687 46.55117187 18.08203125 47.4609375 C16.53812297 60.01681805 9.06859591 72.01149564 -0.7421875 79.78515625 C-6.67272129 84.02258812 -12.71613201 86.88511401 -19.7421875 88.78515625 C-20.36246826 88.95789063 -20.98274902 89.130625 -21.62182617 89.30859375 C-25.10397957 90.09122627 -28.62822819 89.96962341 -32.1796875 89.97265625 C-32.93056641 89.98490234 -33.68144531 89.99714844 -34.45507812 90.00976562 C-38.72281546 90.02102615 -41.82031105 89.63483557 -45.7421875 87.78515625 C-47.0003125 87.51703125 -48.2584375 87.24890625 -49.5546875 86.97265625 C-59.86895529 84.44237707 -68.75916885 76.12936553 -74.5546875 67.53515625 C-82.63907014 54.06743761 -84.28627443 40.40205833 -80.7734375 25.27734375 C-77.0575971 12.69415696 -67.97085097 1.55864086 -56.7421875 -5.21484375 C-37.0007027 -15.46148184 -17.93420777 -12.50569197 0 0 Z " fill="#101313" transform="translate(1055.7421875,189.21484375)"/>
<path d="M0 0 C10.58861315 7.97816923 17.93610311 18.79873174 20.53515625 31.91015625 C22.16775127 46.40720745 20.07914004 59.82629634 11.23046875 71.83203125 C10.39128906 72.86070312 10.39128906 72.86070312 9.53515625 73.91015625 C8.93445313 74.6578125 8.33375 75.40546875 7.71484375 76.17578125 C-0.12822134 84.94331409 -11.81866434 91.23862152 -23.61108398 92.05957031 C-34.44943106 92.62133751 -43.89603683 92.64300974 -53.46484375 86.91015625 C-54.39425781 86.36359375 -55.32367187 85.81703125 -56.28125 85.25390625 C-67.8427224 77.6641775 -76.1181398 66.53412892 -79.12646484 52.94726562 C-80.58353582 44.17540398 -80.20303743 35.36994866 -77.46484375 26.91015625 C-77.07296875 25.67265625 -76.68109375 24.43515625 -76.27734375 23.16015625 C-71.14154796 10.01557001 -61.37021232 -0.36659334 -48.46484375 -6.08984375 C-47.75457031 -6.40824219 -47.04429687 -6.72664062 -46.3125 -7.0546875 C-30.62881058 -12.87239793 -13.45825923 -9.12063323 0 0 Z " fill="#101314" transform="translate(730.46484375,187.08984375)"/>
<path d="M0 0 C0.77472656 0.36222656 1.54945313 0.72445312 2.34765625 1.09765625 C14.09721452 7.04297304 23.07518087 17.11349959 27.9375 29.375 C32.03407825 43.3515611 31.39147051 57.76226387 24.609375 70.640625 C17.48592211 83.16290535 7.72692181 91.18262744 -6 96 C-18.54901538 99.28035665 -33.12394471 97.65855076 -44.515625 91.6796875 C-58.08163652 83.23553747 -65.06371092 70.80886723 -70 56 C-70.78006267 38.83862128 -68.61151379 25.94690987 -57.22265625 12.38671875 C-42.7243045 -3.1818101 -19.65071037 -9.84148877 0 0 Z " fill="#101314" transform="translate(399,182)"/>
<path d="M0 0 C2.53004079 1.6764404 4.86341749 3.44941397 7.1953125 5.390625 C7.90300781 5.97457031 8.61070312 6.55851563 9.33984375 7.16015625 C18.3160202 15.31251536 23.82256507 26.72259422 24.56640625 38.80078125 C25.02046654 55.81169584 20.8602167 68.81467928 9.1953125 81.390625 C4.49077383 85.77810004 -0.88963642 88.90762781 -6.8046875 91.390625 C-7.495625 91.69097656 -8.1865625 91.99132812 -8.8984375 92.30078125 C-19.72941702 96.28821378 -34.26628243 96.13830237 -44.8046875 91.390625 C-45.70445312 90.9884375 -46.60421875 90.58625 -47.53125 90.171875 C-60.40200386 83.789683 -68.49953423 73.53528595 -73.1171875 60.078125 C-77.0999834 47.49114556 -77.0083142 35.65958648 -71.8046875 23.390625 C-69.72963713 19.51183834 -67.40039481 15.93904247 -64.8046875 12.390625 C-64.09505859 11.40449219 -64.09505859 11.40449219 -63.37109375 10.3984375 C-48.18026335 -8.96664374 -20.51239181 -11.77034182 0 0 Z " fill="#101313" transform="translate(887.8046875,184.609375)"/>
<path d="M0 0 C1.5053356 1.17557144 2.9871488 2.38222694 4.4375 3.625 C5.06914063 4.14707031 5.70078125 4.66914063 6.3515625 5.20703125 C15.43992298 13.43459988 21.07960522 25.16247688 21.75 37.30859375 C22.06786652 46.70292188 21.93509604 55.14501241 17.4375 63.625 C16.99019531 64.48222656 16.54289063 65.33945312 16.08203125 66.22265625 C10.58810958 75.98799155 4.41288179 82.4852895 -5.5625 87.625 C-6.39910156 88.11355469 -7.23570312 88.60210938 -8.09765625 89.10546875 C-18.55478335 94.47697145 -32.04727878 94.46291939 -43.33203125 91.703125 C-46.26192972 90.54470558 -48.86478362 89.24704466 -51.5625 87.625 C-52.3771875 87.15578125 -53.191875 86.6865625 -54.03125 86.203125 C-66.08635396 78.72896054 -72.31396334 68.93838676 -76.5625 55.625 C-76.79066406 54.9340625 -77.01882813 54.243125 -77.25390625 53.53125 C-80.6710138 41.87007179 -78.42527146 29.10339876 -72.9140625 18.43359375 C-71.23279316 15.73548684 -69.46309023 13.17213805 -67.5625 10.625 C-66.799375 9.5525 -66.03625 8.48 -65.25 7.375 C-47.80299485 -10.47774946 -20.97742996 -14.10167143 0 0 Z " fill="#121213" transform="translate(728.5625,491.375)"/>
<path d="M0 0 C2.47550638 1.66411127 4.74537619 3.41831561 7.01171875 5.35546875 C7.94177734 6.10376953 7.94177734 6.10376953 8.890625 6.8671875 C17.15110105 14.20367294 23.16118058 25.57494128 24.22680664 36.57592773 C25.08317916 52.8400854 21.68480075 65.54634534 11.63671875 78.60546875 C3.73199838 86.88660437 -7.84316217 93.72750039 -19.43359375 94.62109375 C-36.82317578 94.54725264 -48.8883414 91.89786392 -61.765625 79.6328125 C-67.68043588 73.57247024 -70.71427327 68.26570629 -73.12890625 60.08984375 C-73.86517912 57.41937675 -73.86517912 57.41937675 -75.07421875 55.421875 C-79.18420795 46.13048915 -75.25499636 32.27572486 -71.98828125 23.35546875 C-70.29384273 19.75173496 -68.34156353 16.56345404 -65.98828125 13.35546875 C-65.23611328 12.31326172 -65.23611328 12.31326172 -64.46875 11.25 C-57.47334964 2.45043312 -47.89773428 -3.25314752 -36.98828125 -5.64453125 C-36.364375 -5.82371094 -35.74046875 -6.00289063 -35.09765625 -6.1875 C-23.15057753 -8.77603372 -10.54706614 -5.80433313 0 0 Z " fill="#111112" transform="translate(564.98828125,489.64453125)"/>
<path d="M0 0 C8.6003437 5.5269476 13.66624664 11.57195145 16.51953125 21.453125 C18.16255843 29.25366528 16.62780803 36.43965525 12.9375 43.4375 C7.43296657 50.84191904 1.36385343 56.94742351 -8.0625 58.4375 C-17.19139996 59.28153455 -24.46480589 58.86442436 -32.0625 53.4375 C-34.61864376 51.26865075 -36.87456857 48.97378922 -39.0625 46.4375 C-39.660625 45.7775 -40.25875 45.1175 -40.875 44.4375 C-45.29827567 36.98777255 -44.85362793 27.77730692 -44.0625 19.4375 C-41.49473165 10.58786981 -35.40099029 4.17081296 -27.625 -0.5 C-18.99624522 -4.44607688 -8.42890652 -4.31894384 0 0 Z " fill="#F9F9F9" transform="translate(393.0625,818.5625)"/>
<path d="M0 0 C6.50333837 4.98128045 11.99247774 10.03256867 13.9375 18.25 C14.7661616 26.67330247 15.35489964 35.23477181 9.9375 42.25 C9.35484375 43.01957031 8.7721875 43.78914063 8.171875 44.58203125 C2.76193809 51.17406067 -2.60176948 54.9095645 -11.0625 56.25 C-19.20810255 56.84364606 -26.28285859 57.18734755 -33.0625 52.25 C-33.73796875 51.78722656 -34.4134375 51.32445312 -35.109375 50.84765625 C-42.04927132 45.51228483 -46.19962527 38.42141816 -47.640625 29.78515625 C-48.1107767 20.11499065 -45.33821786 12.64833784 -39.3515625 5.08984375 C-28.4435152 -6.53388991 -13.52552895 -7.72887369 0 0 Z " fill="#F9F9F9" transform="translate(1040.0625,202.75)"/>
<path d="M0 0 C7.56877729 6.0206183 11.39184412 12.87630575 13.16796875 22.4375 C13.70561502 30.34235327 10.21775929 39.3071481 5.5625 45.625 C-2.90322377 53.33821499 -10.95580383 55.74588976 -22.1484375 55.5390625 C-27.62926386 55.23974247 -31.75734218 53.25955455 -36.25 50.1875 C-37.178125 49.56875 -38.10625 48.95 -39.0625 48.3125 C-45.32696544 42.22701929 -48.42686731 36.00880531 -48.68164062 27.12255859 C-48.70621641 17.95783976 -47.87714006 11.08517849 -41.3125 4.13671875 C-28.3114009 -7.75633213 -15.02078451 -8.37697598 0 0 Z " fill="#FAFAFA" transform="translate(397.25,508.8125)"/>
<path d="M0 0 C7.24977061 5.9609225 11.93467521 13.19099182 13.08984375 22.5625 C13.49931367 31.996687 9.76590941 40.1350251 3.8125 47.3125 C-0.15099308 51.06175021 -3.64520043 52.90696589 -9.1875 53.3125 C-9.1875 53.9725 -9.1875 54.6325 -9.1875 55.3125 C-29.18079422 55.81794845 -29.18079422 55.81794845 -37.1875 49.3125 C-43.76590566 42.82214183 -48.47553565 36.70559346 -48.70727539 27.15991211 C-48.62186432 17.83112467 -47.68513132 11.12430409 -41.0625 4.0390625 C-28.15379252 -8.04104552 -15.06403846 -7.97507918 0 0 Z " fill="#FAF9FA" transform="translate(397.1875,203.6875)"/>
<path d="M0 0 C7.45432035 5.94588224 11.66468991 13.03719159 13.2265625 22.42578125 C13.80594079 30.76577933 10.22016827 39.79410037 5.125 46.3125 C-1.3927485 53.10041424 -9.10730231 55.44344441 -18.25 55.6875 C-27.18905387 55.73184913 -33.34610972 53.08124561 -39.9375 47.125 C-46.37854129 39.98185468 -48.91236967 32.96572847 -48.78491211 23.35791016 C-48.28311394 14.49734878 -44.64401423 7.2675516 -38.125 1.25 C-26.51388207 -7.83984661 -12.0779338 -8.37920927 0 0 Z " fill="#F9F9F9" transform="translate(880.125,203.6875)"/>
<path d="M0 0 C7.46289791 5.96729691 11.06742404 14.71937058 12.1875 24 C11.92443588 31.95382115 8.46139211 40.0928194 3.0625 45.875 C-5.04443566 52.97420897 -12.68460593 55.44155809 -23.40625 54.8515625 C-31.67556956 53.82630134 -37.84813741 49.85305973 -43.48828125 43.8125 C-48.40484301 37.0099844 -51.34695867 28.73930982 -50.25 20.375 C-48.59187676 11.39472193 -44.33090781 5.1573048 -37.6875 -1 C-25.19370181 -9.32919879 -12.25569862 -8.20153216 0 0 Z " fill="#FAF9FA" transform="translate(720.25,204.625)"/>
<path d="M0 0 C7.20294205 5.92784496 11.79393994 13.14516394 12.953125 22.5078125 C13.43907124 31.33322322 10.04346378 39.83589164 4.546875 46.66796875 C-2.47621718 53.46834131 -9.90816916 55.76143909 -19.46704102 55.77172852 C-28.05186481 55.59749587 -34.24782311 52.46804577 -40.4375 46.61328125 C-47.00803513 39.00964311 -49.32850968 31.11755284 -48.87890625 21.14453125 C-47.49531856 12.31948544 -43.33079546 5.29080671 -36.31640625 -0.2109375 C-25.02389428 -7.67362467 -11.24741305 -7.54283218 0 0 Z " fill="#FBFAFB" transform="translate(718.30078125,508.54296875)"/>
<path d="M0 0 C8.27418057 6.98557868 11.77085971 14.34228201 12.8203125 25.01171875 C12.54686045 33.71091194 8.36197753 41.97270343 2.4453125 48.19921875 C-6.58564066 55.30869252 -15.40337851 56.35622215 -26.5546875 55.19921875 C-35.38057337 52.62690745 -41.79026922 46.56005637 -46.4921875 38.82421875 C-50.12834969 30.88526464 -50.16844816 21.14612871 -47.48046875 12.90625 C-43.39680603 4.79486515 -37.03216555 -1.40979003 -28.5546875 -4.80078125 C-18.78257434 -7.78670471 -8.2749143 -5.83292889 0 0 Z " fill="#FAFAFA" transform="translate(557.5546875,203.80078125)"/>
<path d="M0 0 C7.2631575 6.142079 11.321187 12.61160036 12.734375 22.18359375 C13.28647011 30.36056997 10.03312218 39.32824124 5.00390625 45.76171875 C2.28154561 48.35128131 -0.30723453 50.3134304 -3.55859375 52.19921875 C-4.52796875 52.77671875 -5.49734375 53.35421875 -6.49609375 53.94921875 C-13.62718806 56.82389151 -23.42441425 56.4899877 -30.49609375 53.63671875 C-38.97830462 49.04484519 -45.54170833 42.50311722 -48.55859375 33.19921875 C-49.73456183 25.58473386 -50.09018985 16.50777979 -45.81640625 9.828125 C-45.40132812 9.29058594 -44.98625 8.75304687 -44.55859375 8.19921875 C-44.12289062 7.58949219 -43.6871875 6.97976563 -43.23828125 6.3515625 C-32.64772113 -7.27727307 -14.15030597 -9.95922298 0 0 Z " fill="#FAFAFA" transform="translate(557.55859375,508.80078125)"/>
<path d="M0 0 C1.02466243 -0.00224729 2.04932486 -0.00449459 3.10503766 -0.00680998 C4.7867434 -0.00286946 4.7867434 -0.00286946 6.50242299 0.00115067 C7.70187241 -0.00000318 8.90132182 -0.00115702 10.13711819 -0.00234583 C13.47778406 -0.0045424 16.8183928 -0.00223699 20.15905324 0.0019323 C23.78906197 0.00536328 27.41906758 0.00299632 31.04907691 0.00135481 C37.41477024 -0.00072058 43.78045423 0.00092768 50.14614648 0.00499302 C59.61173853 0.01102129 69.07732468 0.01132945 78.5429183 0.01045103 C94.46457084 0.00913622 110.38621923 0.01248202 126.30787057 0.01846844 C142.07616988 0.02438203 157.84446746 0.02823369 173.61276788 0.02932125 C175.08247309 0.02942436 175.08247309 0.02942436 176.58186931 0.02952956 C181.55763627 0.02986788 186.53340323 0.03016927 191.5091702 0.03045643 C226.76807743 0.03255779 262.02698241 0.03929779 297.28588837 0.04875904 C331.54304971 0.05794089 365.80021043 0.06502577 400.05737275 0.06926686 C401.11301265 0.06939838 402.16865255 0.06952991 403.25628153 0.06966542 C413.85728718 0.07098392 424.45829282 0.07225974 435.05929847 0.07350428 C456.65547362 0.07604061 478.25164872 0.07886186 499.8478238 0.08185536 C501.33731513 0.08206129 501.33731513 0.08206129 502.85689719 0.08227139 C569.18650001 0.09147469 635.51610157 0.1073202 701.84570283 0.1241985 C701.84570283 0.4541985 701.84570283 0.7841985 701.84570283 1.1241985 C701.23572315 1.12491064 700.62574347 1.12562278 699.99727956 1.12635651 C633.6197952 1.20388673 567.24231234 1.28264521 500.86483735 1.3678661 C499.37868328 1.36977362 499.37868328 1.36977362 497.8625059 1.37171968 C476.3329028 1.39936094 454.80329999 1.42722392 433.27369747 1.45531544 C422.7163191 1.4690892 412.15894067 1.48281396 401.6015622 1.49651295 C400.02564286 1.49855907 400.02564286 1.49855907 398.41788676 1.50064654 C364.33509727 1.5448756 330.25230482 1.58586487 296.16950934 1.62518262 C261.15901938 1.66558761 226.14853495 1.70924398 191.13805423 1.75701961 C186.19850557 1.76375864 181.25895686 1.77046031 176.31940812 1.77713925 C175.34718818 1.77845497 174.37496823 1.7797707 173.37328708 1.7811263 C157.69297871 1.80225059 142.01266823 1.81992467 126.33235428 1.83632381 C110.58667788 1.85286438 94.84100939 1.87300333 79.09534235 1.89686691 C69.72871799 1.91095188 60.36209982 1.9222264 50.99546769 1.92956287 C44.74937907 1.93472623 38.50330226 1.94346501 32.25722252 1.95518623 C28.69138185 1.9617732 25.12555823 1.9667345 21.55971111 1.96736049 C17.73006091 1.96806875 13.9004499 1.97638063 10.07081002 1.9855333 C8.9482092 1.98451063 7.82560838 1.98348796 6.66898936 1.9824343 C5.65680248 1.98611501 4.6446156 1.98979572 3.60175639 1.99358797 C2.28637179 1.99522577 2.28637179 1.99522577 0.94441376 1.99689665 C-1.21285909 1.99004643 -1.21285909 1.99004643 -3.15429717 3.1241985 C-5.49433887 2.84177967 -7.8293444 2.51169063 -10.15429717 2.1241985 C-10.15429717 1.7941985 -10.15429717 1.4641985 -10.15429717 1.1241985 C-6.70765197 0.34519015 -3.5307764 -0.00062481 0 0 Z " fill="#3AC773" transform="translate(352.1542971730232,133.8758015036583)"/>
<path d="M0 0 C0.66 0 1.32 0 2 0 C2 0.99 2 1.98 2 3 C-231.31 3 -464.62 3 -705 3 C-705 2.67 -705 2.34 -705 2 C-704.38899622 1.99928786 -703.77799243 1.99857571 -703.14847339 1.99784199 C-636.66257218 1.92031525 -570.17667247 1.84155937 -503.69078064 1.7563324 C-502.69846347 1.75506072 -501.70614629 1.75378904 -500.6837589 1.75247882 C-479.12075466 1.72483784 -457.55775071 1.69697488 -435.99474705 1.66888306 C-425.42105863 1.65510924 -414.84737015 1.6413845 -404.27368164 1.62768555 C-403.22144314 1.62632146 -402.16920465 1.62495738 -401.08508013 1.62355196 C-366.94679905 1.57931936 -332.80851501 1.53833108 -298.67022794 1.49901587 C-263.60404714 1.45861499 -228.53787187 1.41495977 -193.47170032 1.36717889 C-188.52480361 1.36043982 -183.57790685 1.35373815 -178.63101006 1.34705925 C-177.17050428 1.34508566 -177.17050428 1.34508566 -175.68049334 1.3430722 C-159.97395214 1.32194422 -144.26740884 1.30427173 -128.56086207 1.28787469 C-112.79055841 1.27133796 -97.02026266 1.25120077 -81.24996836 1.22733159 C-71.86758123 1.21324181 -62.4852003 1.2019693 -53.1028054 1.19463562 C-46.84748615 1.18947507 -40.59217871 1.18073948 -34.33686833 1.16901226 C-30.76493532 1.1624206 -27.19301938 1.15746339 -23.62107993 1.15683801 C-19.78659566 1.15613074 -15.95215068 1.14782531 -12.11767673 1.1386652 C-10.42742847 1.1401992 -10.42742847 1.1401992 -8.70303378 1.14176419 C-7.69166077 1.13808348 -6.68028777 1.13440277 -5.6382671 1.13061053 C-4.7599402 1.12951866 -3.88161331 1.1284268 -2.97667045 1.12730185 C-0.99822048 1.2182871 -0.99822048 1.2182871 0 0 Z " fill="#F2F1F2" transform="translate(1053,964)"/>
<path d="M0 0 C0.92731934 -0.00014603 1.85463867 -0.00029205 2.81005859 -0.0004425 C5.86713013 0.0002527 8.92414031 0.00802675 11.98120117 0.01586914 C14.10397814 0.01773471 16.22675553 0.01915796 18.34953308 0.02015686 C23.93082879 0.02397106 29.51209838 0.03379201 35.09338379 0.04486084 C40.79101203 0.05509853 46.4886445 0.05965953 52.1862793 0.06469727 C63.36142096 0.07541524 74.53654327 0.09247852 85.71166992 0.11352539 C85.71166992 0.44352539 85.71166992 0.77352539 85.71166992 1.11352539 C84.57605621 1.12383286 83.4404425 1.13414032 82.27041626 1.14476013 C71.58706307 1.24236429 60.90376983 1.34508586 50.2205143 1.45286465 C44.72767803 1.50811376 39.23483647 1.56153694 33.74194336 1.61083984 C28.44457627 1.65845405 23.14727537 1.71079578 17.84998703 1.76646614 C15.82532771 1.78690305 13.80065023 1.80561389 11.77595901 1.82259941 C8.94798443 1.84661386 6.12013566 1.87667243 3.29223633 1.90820312 C2.02664635 1.91683632 2.02664635 1.91683632 0.73548889 1.92564392 C-3.4096276 1.87332337 -3.4096276 1.87332337 -7.28833008 3.11352539 C-9.62837178 2.83110656 -11.9633773 2.50101752 -14.28833008 2.11352539 C-14.28833008 1.78352539 -14.28833008 1.45352539 -14.28833008 1.11352539 C-9.52330122 -0.11009023 -4.88218071 -0.02016765 0 0 Z " fill="#39C672" transform="translate(356.288330078125,133.886474609375)"/>
<path d="M0 0 C0.66 0.33 1.32 0.66 2 1 C-2.76008307 6.5930976 -7.74595676 11.86877855 -13 17 C-13.66 16.67 -14.32 16.34 -15 16 C-10.13036358 10.52436438 -5.24944351 5.1148424 0 0 Z " fill="#E35256" transform="translate(302,772)"/>
<path d="M0 0 C0.71484375 1.546875 0.71484375 1.546875 1 4 C-0.05391226 6.53857885 -1.13965574 8.84495527 -2.4375 11.25 C-2.77587891 11.8996875 -3.11425781 12.549375 -3.46289062 13.21875 C-4.29786887 14.81814494 -5.14753114 16.40985859 -6 18 C-6.66 18 -7.32 18 -8 18 C-6.52232949 11.35048271 -3.37863948 5.8754328 0 0 Z " fill="#202123" transform="translate(261,785)"/>
<path d="M0 0 C0 4.32249566 -2.14915074 5.88395546 -5 9 C-8.6441774 11.4294516 -10.71241272 11.16179575 -15 11 C-13.67432122 8.34864245 -12.47649732 8.24830608 -9.75 7.1875 C-5.49810178 5.39044573 -2.99545906 3.47859762 0 0 Z " fill="#2B2C2D" transform="translate(724,248)"/>
<path d="M0 0 C0.66 0.33 1.32 0.66 2 1 C0.23885299 3.00932223 -1.53286463 5.00716745 -3.3125 7 C-3.81201172 7.57234375 -4.31152344 8.1446875 -4.82617188 8.734375 C-6.15598061 10.21389731 -7.57387123 11.61308462 -9 13 C-9.99 13 -10.98 13 -12 13 C-8.19524578 8.43969176 -4.25030379 4.14910608 0 0 Z " fill="#232325" transform="translate(286,755)"/>
<path d="M0 0 C0.66 0 1.32 0 2 0 C1.67 5.61 1.34 11.22 1 17 C0.01 17 -0.98 17 -2 17 C-2.05398987 14.72942623 -2.09278742 12.45848712 -2.125 10.1875 C-2.14820313 8.92292969 -2.17140625 7.65835938 -2.1953125 6.35546875 C-2 3 -2 3 0 0 Z " fill="#383839" transform="translate(348,523)"/>
<path d="M0 0 C1.11181641 0.00322266 2.22363281 0.00644531 3.36914062 0.00976562 C4.51962891 0.01814453 5.67011719 0.02652344 6.85546875 0.03515625 C8.02529297 0.03966797 9.19511719 0.04417969 10.40039062 0.04882812 C13.28130233 0.06058695 16.16210919 0.07702199 19.04296875 0.09765625 C19.04296875 0.42765625 19.04296875 0.75765625 19.04296875 1.09765625 C18.10445068 1.13524048 18.10445068 1.13524048 17.14697266 1.17358398 C14.32042256 1.28940898 11.49421706 1.4121961 8.66796875 1.53515625 C7.19070313 1.59413086 7.19070313 1.59413086 5.68359375 1.65429688 C4.27207031 1.71713867 4.27207031 1.71713867 2.83203125 1.78125 C1.96271973 1.81790771 1.0934082 1.85456543 0.19775391 1.89233398 C-2.00535745 1.97167169 -2.00535745 1.97167169 -3.95703125 3.09765625 C-6.29707295 2.81523742 -8.63207848 2.48514838 -10.95703125 2.09765625 C-10.95703125 1.76765625 -10.95703125 1.43765625 -10.95703125 1.09765625 C-7.23814259 0.23439615 -3.81406637 -0.01955931 0 0 Z " fill="#39C36F" transform="translate(352.95703125,133.90234375)"/>
<path d="M0 0 C0.66 0.33 1.32 0.66 2 1 C-5.29840547 9.44646925 -5.29840547 9.44646925 -9 13 C-9.66 12.67 -10.32 12.34 -11 12 C-9.54234835 10.37438849 -8.08385614 8.74953066 -6.625 7.125 C-5.81289063 6.22007812 -5.00078125 5.31515625 -4.1640625 4.3828125 C-2.80923795 2.89103817 -1.42494565 1.42494565 0 0 Z " fill="#0F2017" transform="translate(993,188)"/>
<path d="M0 0 C0.33 0.99 0.66 1.98 1 3 C-0.38124477 4.65809558 -1.78061348 6.30110507 -3.1875 7.9375 C-3.96480469 8.85402344 -4.74210937 9.77054688 -5.54296875 10.71484375 C-8.15235962 13.14170172 -9.50739976 13.70843302 -13 14 C-10.84327206 11.84327206 -8.68391633 9.69181843 -6.5 7.5625 C-4.14842778 5.15213847 -2.05532264 2.66430713 0 0 Z " fill="#DC5557" transform="translate(420,875)"/>
<path d="M0 0 C0 0.66 0 1.32 0 2 C-2.25 3.6875 -2.25 3.6875 -5 5 C-6.875 4.6171875 -6.875 4.6171875 -9 4 C-10.58025005 3.78807905 -12.16398461 3.60076629 -13.75 3.4375 C-14.54921875 3.35371094 -15.3484375 3.26992188 -16.171875 3.18359375 C-16.77515625 3.12300781 -17.3784375 3.06242187 -18 3 C-18 2.67 -18 2.34 -18 2 C-15.37518273 1.66517137 -12.75016613 1.3320723 -10.125 1 C-9.37863281 0.90460938 -8.63226562 0.80921875 -7.86328125 0.7109375 C-2.2265625 0 -2.2265625 0 0 0 Z " fill="#323334" transform="translate(875,257)"/>
<path d="M0 0 C0.33 0.99 0.66 1.98 1 3 C-1.64 5.64 -4.28 8.28 -7 11 C-7.66 10.34 -8.32 9.68 -9 9 C-6.03 6.03 -3.06 3.06 0 0 Z " fill="#251719" transform="translate(1107,911)"/>
<path d="M0 0 C-1.5885342 4.28904235 -4.43127368 6.32345526 -8 9 C-8.66 9 -9.32 9 -10 9 C-8.5124715 4.98367305 -4.56813239 0 0 0 Z " fill="#231914" transform="translate(512,492)"/>
<path d="M0 0 C0 0.66 0 1.32 0 2 C-3.96 3.98 -3.96 3.98 -8 6 C-8.66 5.34 -9.32 4.68 -10 4 C-3.375 0 -3.375 0 0 0 Z " fill="#162D22" transform="translate(363,181)"/>
<path d="M0 0 C7.37297297 2.34594595 7.37297297 2.34594595 10 4 C10.33 4.99 10.66 5.98 11 7 C3.62702703 4.65405405 3.62702703 4.65405405 1 3 C0.67 2.01 0.34 1.02 0 0 Z " fill="#272729" transform="translate(306,949)"/>
<path d="M0 0 C0.99 0 1.98 0 3 0 C5.15305957 3.85756507 6.39253254 6.55129785 6 11 C3.13546142 7.58983503 1.65296434 4.09305456 0 0 Z " fill="#1B1C1D" transform="translate(256,897)"/>
<path d="M0 0 C0.66 0.33 1.32 0.66 2 1 C1.401875 1.721875 0.80375 2.44375 0.1875 3.1875 C-2.0352811 5.91314203 -2.0352811 5.91314203 -3.625 8.8125 C-4.07875 9.534375 -4.5325 10.25625 -5 11 C-5.66 11 -6.32 11 -7 11 C-5.5140084 6.40693504 -3.14985318 3.56430755 0 0 Z " fill="#DDDDDE" transform="translate(519,205)"/>
<path d="M0 0 C0.33 0.66 0.66 1.32 1 2 C-0.65 3.98 -2.3 5.96 -4 8 C-5.32 7.67 -6.64 7.34 -8 7 C-5.36 4.69 -2.72 2.38 0 0 Z " fill="#50E286" transform="translate(1060,263)"/>
<path d="M0 0 C2.66666667 2.66666667 5.33333333 5.33333333 8 8 C7.01 8.495 7.01 8.495 6 9 C3.69 7.02 1.38 5.04 -1 3 C-0.67 2.01 -0.34 1.02 0 0 Z " fill="#1F1F20" transform="translate(998,246)"/>
<path d="M0 0 C0.33 0.99 0.66 1.98 1 3 C-1.31 4.98 -3.62 6.96 -6 9 C-6 6 -6 6 -4.6875 4.39453125 C-4.130625 3.87246094 -3.57375 3.35039062 -3 2.8125 C-2.443125 2.28269531 -1.88625 1.75289062 -1.3125 1.20703125 C-0.6628125 0.60955078 -0.6628125 0.60955078 0 0 Z " fill="#4CE285" transform="translate(297,159)"/>
<path d="M0 0 C2.10633718 1.70828921 2.93801608 2.52148416 3.29296875 5.26171875 C3.25816406 6.06222656 3.22335937 6.86273437 3.1875 7.6875 C3.16042969 8.49574219 3.13335938 9.30398438 3.10546875 10.13671875 C3.07066406 10.75160156 3.03585937 11.36648438 3 12 C2.67 12 2.34 12 2 12 C0.40861915 7.82262526 -0.21278058 4.46839215 0 0 Z " fill="#0C0C0B" transform="translate(746,517)"/>
<path d="M0 0 C1.53202706 0.25195908 3.05257128 0.57596777 4.5625 0.9375 C5.38878906 1.13214844 6.21507812 1.32679688 7.06640625 1.52734375 C8.02353516 1.76130859 8.02353516 1.76130859 9 2 C6 4 6 4 3.4375 3.75 C1 3 1 3 -1 1 C-0.67 0.67 -0.34 0.34 0 0 Z " fill="#232324" transform="translate(1069,420)"/>
<path d="M0 0 C0.99 0.33 1.98 0.66 3 1 C-0.17320782 4.53586014 -2.16743695 6.58578031 -7 7 C-4.66666667 4.66666667 -2.33333333 2.33333333 0 0 Z " fill="#0F2718" transform="translate(1102,299)"/>
<path d="M0 0 C0.33 0 0.66 0 1 0 C1.3125 2.25 1.3125 2.25 1 5 C-1.5 7.3125 -1.5 7.3125 -4 9 C-4 4.98525763 -2.33218233 3.18024863 0 0 Z " fill="#212123" transform="translate(888,244)"/>
<path d="M0 0 C0.66 0.99 1.32 1.98 2 3 C0.25 5.0625 0.25 5.0625 -2 7 C-4.25 6.75 -4.25 6.75 -6 6 C-4 4 -2 2 0 0 Z " fill="#46DD7E" transform="translate(416,262)"/>
<path d="M0 0 C0.33 0 0.66 0 1 0 C1.39253254 4.44870215 0.15305957 7.14243493 -2 11 C-2.66 10.01 -3.32 9.02 -4 8 C-2.68 5.36 -1.36 2.72 0 0 Z " fill="#18191A" transform="translate(259,171)"/>
<path d="M0 0 C-1.32 0.33 -2.64 0.66 -4 1 C-4 1.66 -4 2.32 -4 3 C-6.31 3.33 -8.62 3.66 -11 4 C-3.77464789 -1.88732394 -3.77464789 -1.88732394 0 0 Z " fill="#38383A" transform="translate(322,736)"/>
<path d="M0 0 C0.66 0.99 1.32 1.98 2 3 C-1.63 2.67 -5.26 2.34 -9 2 C-5.29489954 0.14744977 -3.93924189 -0.5183213 0 0 Z " fill="#EDEEEE" transform="translate(349,726)"/>
<path d="M0 0 C0.66 0.33 1.32 0.66 2 1 C-1.96 4.465 -1.96 4.465 -6 8 C-6.66 7.67 -7.32 7.34 -8 7 C-5.36 4.69 -2.72 2.38 0 0 Z " fill="#E0E0E1" transform="translate(684,507)"/>
<path d="M0 0 C-1.90401138 1.90401138 -3.33425686 2.93520439 -6.046875 3.19921875 C-8.03233273 3.1886578 -10.0169914 3.09915043 -12 3 C-12 2.67 -12 2.34 -12 2 C-10.37787941 1.47026689 -8.75218416 0.95146893 -7.125 0.4375 C-6.22007812 0.14746094 -5.31515625 -0.14257812 -4.3828125 -0.44140625 C-2 -1 -2 -1 0 0 Z " fill="#45CE78" transform="translate(400,276)"/>
<path d="M0 0 C0.99 0.33 1.98 0.66 3 1 C-2.75 6 -2.75 6 -5 6 C-3.86525052 2.59575156 -3.03188696 1.78346291 0 0 Z " fill="#191417" transform="translate(1095,922)"/>
<path d="M0 0 C0.33 0.99 0.66 1.98 1 3 C-0.65 4.65 -2.3 6.3 -4 8 C-4.99 7.67 -5.98 7.34 -7 7 C-6.21625 6.401875 -5.4325 5.80375 -4.625 5.1875 C-1.85425677 3.08914751 -1.85425677 3.08914751 0 0 Z " fill="#222325" transform="translate(403,552)"/>
<path d="M0 0 C2.9719385 1.12451727 5.33440687 2.22293791 8 4 C8 4.66 8 5.32 8 6 C5.0280615 4.87548273 2.66559313 3.77706209 0 2 C0 1.34 0 0.68 0 0 Z " fill="#0F2718" transform="translate(671,268)"/>
<path d="M0 0 C0 0.99 0 1.98 0 3 C-1.75 4.0625 -1.75 4.0625 -4 5 C-5.32 4.67 -6.64 4.34 -8 4 C-5.36 2.68 -2.72 1.36 0 0 Z " fill="#24161A" transform="translate(1085,929)"/>
<path d="M0 0 C0 0.66 0 1.32 0 2 C-2.875 2.625 -2.875 2.625 -6 3 C-6.66 2.34 -7.32 1.68 -8 1 C-3.375 -1.125 -3.375 -1.125 0 0 Z " fill="#1C1C1E" transform="translate(374,197)"/>
<path d="M0 0 C-3.03525486 2.02350324 -4.19426202 2.32124018 -7.6875 2.625 C-8.49574219 2.69976562 -9.30398438 2.77453125 -10.13671875 2.8515625 C-10.75160156 2.90054688 -11.36648438 2.94953125 -12 3 C-4.82142857 -1.78571429 -4.82142857 -1.78571429 0 0 Z " fill="#3DC66E" transform="translate(338,138)"/>
<path d="M0 0 C-1.5 1.5625 -1.5 1.5625 -4 3 C-6.77437543 2.96823234 -9.25286467 2.50364148 -12 2 C-12 1.67 -12 1.34 -12 1 C-7.9472484 0.01751476 -4.16138263 -0.08159574 0 0 Z " fill="#32A25B" transform="translate(354,134)"/>
</svg>
